<?xml version="1.0" encoding="utf-8"?>
<!-- Generator: Adobe Illustrator 22.1.0, SVG Export Plug-In . SVG Version: 6.00 Build 0)  -->
<svg version="1.1" xmlns="http://www.w3.org/2000/svg" xmlns:xlink="http://www.w3.org/1999/xlink" x="0px" y="0px"
	 viewBox="0 0 1024 1024" style="enable-background:new 0 0 1024 1024;" xml:space="preserve">
<style type="text/css">
	.st0{display:none;}
	.st1{display:inline;fill:#FFFFFF;}
	.st2{fill:#FFFFFF;}
</style>
<g id="back" class="st0">
	<path class="st1" d="M0,128L0,128C0,57.3,57.3,0,128,0h0h768h0c70.7,0,128,57.3,128,128v0v768v0c0,70.7-57.3,128-128,128h0H128h0
		C57.3,1024,0,966.7,0,896v0V128z"/>
</g>
<g id="front">
	<g>
		<path class="st2" d="M896,486.3v59.9L691.1,673.3l-37.8-56.7L824,516.2L603.4,387.5L418.5,772l-64.6-29.4l21-43.1L128,546.1v-59.4
			l205.9-127.6l36.8,57.3L200,516.2l204.9,120.3L590.3,252l64.1,29.9l-20.5,42.6L896,486.3z"/>
	</g>
</g>
</svg>
