<?xml version="1.0" encoding="utf-8"?>
<!-- Generator: Adobe Illustrator 21.1.0, SVG Export Plug-In . SVG Version: 6.00 Build 0)  -->
<svg version="1.1" xmlns="http://www.w3.org/2000/svg" xmlns:xlink="http://www.w3.org/1999/xlink" x="0px" y="0px"
	 viewBox="0 0 400 400" style="enable-background:new 0 0 400 400;" xml:space="preserve">
<style type="text/css">
	.st0{fill:#F8DC3D;}
	.st1{display:none;}
</style>
<g id="Layer_2">
	<rect y="1.1" class="st0" width="400.8" height="399.9"/>
	<g>
		<path d="M154.9,254.6c21,0,41.3,0,62,0c0,11.1,0,21.5,0,32.4c-20.5,0-40.8,0-61.5,0c0,15.7,0,30.9,0,47c1.8,0,3.7,0,5.6,0
			c18.3,0,36.7,0.2,55-0.1c4.9-0.1,6.3,1.5,6.1,6.2c-0.4,7.5-0.2,15-0.1,22.5c0,3-0.7,4.6-4.1,4.5c-33-0.1-66-0.1-99,0
			c-4.2,0-4-2.4-4-5.2c0-31.5,0-63,0-94.5c0-26.7,0.1-53.3-0.1-80c0-4.3,1-5.7,5.5-5.7c32,0.2,64,0.2,96,0c4.3,0,5.9,1.1,5.7,5.6
			c-0.3,7.5-0.3,15,0,22.5c0.1,3.8-1.3,4.9-4.9,4.8c-18.8-0.1-37.7,0.1-56.5-0.1c-4.6-0.1-6,1.4-5.9,5.9
			C155.1,231.6,154.9,242.8,154.9,254.6z"/>
		<path d="M248.3,321.8c10.2,3.7,19.5,7.3,29,10.3c11.3,3.6,23,5.6,34.9,3.7c8-1.2,14.9-4.4,17.2-13c2.3-8.5-0.6-15.6-7.8-20.5
			c-6.2-4.2-12.8-7.6-19.4-11.2c-9.2-5.1-18.8-9.4-27.5-15.1c-29.9-19.7-28.5-54.8-15.8-73.3c10.2-14.9,25.5-20.9,42.6-22.7
			c22.8-2.4,44.3,2.6,65,11.8c0.4,0.2,0.8,0.5,1.6,1.1c-4.1,9.9-8.2,19.8-12.5,30.2c-6.6-2.3-12.9-4.7-19.3-6.7
			c-9.8-3-19.7-4.8-30-3.5c-8.4,1.1-14.3,5.7-16.2,12.8c-2.2,8.3,0.5,14.9,7.3,19.6c4.6,3.2,9.7,5.8,14.6,8.6
			c12.3,7,25.1,13.1,36.8,21c16.9,11.4,22.2,28.4,19.8,48.1c-2.6,21.1-15.2,34.2-34.5,41.2c-17.8,6.5-36.3,6.5-54.7,3.3
			c-9.4-1.6-18.5-5.1-27.7-8c-1.4-0.4-3.2-2.4-3.2-3.6C248.2,344.7,248.3,333.6,248.3,321.8z"/>
	</g>
</g>
<g id="Layer_1" class="st1">
	<image style="display:inline;overflow:visible;" width="400" height="400" xlink:href="ecmascript-logo.png" >
	</image>
</g>
</svg>
